<svg xmlns="http://www.w3.org/2000/svg" viewBox="0 0 400 300" role="img" aria-hidden="true">
  <g fill="none" stroke="#1e293b" stroke-width="2.5" stroke-linecap="round" stroke-linejoin="round">
    <ellipse cx="220" cy="150" rx="75" ry="55"/>
    <path d="M130 150 Q95 120 100 80 Q115 50 150 60 Q145 30 180 25 Q200 20 195 50 Q210 45 220 60"/>
    <path d="M100 80 Q60 100 50 150 Q45 200 100 220"/>
    <line x1="95" y1="200" x2="85" y2="255"/>
    <line x1="120" y1="210" x2="120" y2="265"/>
    <line x1="280" y1="170" x2="310" y2="240"/>
    <line x1="300" y1="180" x2="330" y2="250"/>
    <path d="M220 100 L220 20 L195 50"/>
    <circle cx="185" cy="100" r="4"/>
  </g>
</svg>
